<?xml version="1.0"?>
<svg version="1.1" xmlns="http://www.w3.org/2000/svg" xmlns:xlink="http://www.w3.org/1999/xlink" width="260" height="180">
    <desc iVinci="yes" version="4.5" gridStep="20" showGrid="no" snapToGrid="no" codePlatform="0"/>
    <g id="Layer1" opacity="1">
        <g id="Shape1">
            <desc shapeID="1" type="0" basicInfo-basicType="0" basicInfo-roundedRectRadius="12" basicInfo-polygonSides="6" basicInfo-starPoints="5" bounding="rect(-561,-396.5,1122,793)" text="" font-familyName="" font-pixelSize="20" font-bold="0" font-underline="0" font-alignment="1" strokeStyle="0" markerStart="0" markerEnd="0" shadowEnabled="0" shadowOffsetX="0" shadowOffsetY="2" shadowBlur="4" shadowOpacity="160" blurEnabled="0" blurRadius="4" transform="matrix(1,0,0,1,311,160)" pers-center="0,0" pers-size="0,0" pers-start="0,0" pers-end="0,0" locked="0" mesh="" flag=""/>
            <path id="shapePath1" d="M0,0 Z" style="stroke:none;fill:none;"/>
        </g>
        <g id="Shape2">
            <desc shapeID="2" type="0" basicInfo-basicType="0" basicInfo-roundedRectRadius="12" basicInfo-polygonSides="6" basicInfo-starPoints="5" bounding="rect(-561.26,-396.85,1122.52,793.701)" text="" font-familyName="" font-pixelSize="20" font-bold="0" font-underline="0" font-alignment="1" strokeStyle="0" markerStart="0" markerEnd="0" shadowEnabled="0" shadowOffsetX="0" shadowOffsetY="2" shadowBlur="4" shadowOpacity="160" blurEnabled="0" blurRadius="4" transform="matrix(1,0,0,1,311.26,160.35)" pers-center="0,0" pers-size="0,0" pers-start="0,0" pers-end="0,0" locked="0" mesh="" flag=""/>
            <path id="shapePath2" d="M0,0 Z" style="stroke:none;fill-rule:evenodd;fill:#000000;fill-opacity:0;"/>
        </g>
        <g id="Shape3">
            <desc shapeID="3" type="0" basicInfo-basicType="0" basicInfo-roundedRectRadius="12" basicInfo-polygonSides="6" basicInfo-starPoints="5" bounding="rect(-120,-78,240,156)" text="" font-familyName="" font-pixelSize="20" font-bold="0" font-underline="0" font-alignment="1" strokeStyle="0" markerStart="0" markerEnd="0" shadowEnabled="0" shadowOffsetX="0" shadowOffsetY="2" shadowBlur="4" shadowOpacity="160" blurEnabled="0" blurRadius="4" transform="matrix(1,0,0,1,311.26,160.35)" pers-center="0,0" pers-size="0,0" pers-start="0,0" pers-end="0,0" locked="0" mesh="" flag=""/>
            <path id="shapePath3" d="M0,0 Z" style="stroke:none;fill-rule:evenodd;fill:#004f00;fill-opacity:0.698039;"/>
        </g>
        <g id="Shape4">
            <desc shapeID="4" type="0" basicInfo-basicType="0" basicInfo-roundedRectRadius="12" basicInfo-polygonSides="6" basicInfo-starPoints="5" bounding="rect(-120,-78,240,156)" text="" font-familyName="" font-pixelSize="20" font-bold="0" font-underline="0" font-alignment="1" strokeStyle="0" markerStart="0" markerEnd="0" shadowEnabled="0" shadowOffsetX="0" shadowOffsetY="2" shadowBlur="4" shadowOpacity="160" blurEnabled="0" blurRadius="4" transform="matrix(1,0,0,1,311.26,160.35)" pers-center="0,0" pers-size="0,0" pers-start="0,0" pers-end="0,0" locked="0" mesh="" flag=""/>
            <path id="shapePath4" d="M0,0 Z" style="stroke:#000000;stroke-opacity:1;stroke-width:3;stroke-linejoin:round;stroke-miterlimit:2;stroke-linecap:butt;fill:none;"/>
        </g>
        <g id="Shape5">
            <desc shapeID="5" type="0" basicInfo-basicType="0" basicInfo-roundedRectRadius="12" basicInfo-polygonSides="6" basicInfo-starPoints="5" bounding="rect(-57.8943,-10.0234,115.789,20.0469)" text="" font-familyName="" font-pixelSize="20" font-bold="0" font-underline="0" font-alignment="1" strokeStyle="0" markerStart="0" markerEnd="0" shadowEnabled="0" shadowOffsetX="0" shadowOffsetY="2" shadowBlur="4" shadowOpacity="160" blurEnabled="0" blurRadius="4" transform="matrix(1,0,0,1,290.685,125.779)" pers-center="0,0" pers-size="0,0" pers-start="0,0" pers-end="0,0" locked="0" mesh="" flag=""/>
            <path id="shapePath5" d="M0,0 Z" style="stroke:none;fill-rule:evenodd;fill:#ff0000;fill-opacity:1;"/>
        </g>
        <g id="Shape6">
            <desc shapeID="6" type="0" basicInfo-basicType="0" basicInfo-roundedRectRadius="12" basicInfo-polygonSides="6" basicInfo-starPoints="5" bounding="rect(-32.5988,-9.79688,65.1975,19.5938)" text="" font-familyName="" font-pixelSize="20" font-bold="0" font-underline="0" font-alignment="1" strokeStyle="0" markerStart="0" markerEnd="0" shadowEnabled="0" shadowOffsetX="0" shadowOffsetY="2" shadowBlur="4" shadowOpacity="160" blurEnabled="0" blurRadius="4" transform="matrix(1,0,0,1,311.212,161.005)" pers-center="0,0" pers-size="0,0" pers-start="0,0" pers-end="0,0" locked="0" mesh="" flag=""/>
            <path id="shapePath6" d="M0,0 Z" style="stroke:none;fill-rule:evenodd;fill:#000000;fill-opacity:1;"/>
        </g>
        <g id="Shape7">
            <desc shapeID="7" type="0" basicInfo-basicType="0" basicInfo-roundedRectRadius="12" basicInfo-polygonSides="6" basicInfo-starPoints="5" bounding="rect(-49.7808,-10.0234,99.5616,20.0469)" text="" font-familyName="" font-pixelSize="20" font-bold="0" font-underline="0" font-alignment="1" strokeStyle="0" markerStart="0" markerEnd="0" shadowEnabled="0" shadowOffsetX="0" shadowOffsetY="2" shadowBlur="4" shadowOpacity="160" blurEnabled="0" blurRadius="4" transform="matrix(1,0,0,1,339.675,195.779)" pers-center="0,0" pers-size="0,0" pers-start="0,0" pers-end="0,0" locked="0" mesh="" flag=""/>
            <path id="shapePath7" d="M0,0 Z" style="stroke:none;fill-rule:evenodd;fill:#ff0000;fill-opacity:1;"/>
        </g>
        <g id="Shape8">
            <desc shapeID="8" type="0" basicInfo-basicType="0" basicInfo-roundedRectRadius="12" basicInfo-polygonSides="6" basicInfo-starPoints="5" bounding="rect(-561,-396.5,1122,793)" text="" font-familyName="" font-pixelSize="20" font-bold="0" font-underline="0" font-alignment="1" strokeStyle="0" markerStart="0" markerEnd="0" shadowEnabled="0" shadowOffsetX="0" shadowOffsetY="2" shadowBlur="4" shadowOpacity="160" blurEnabled="0" blurRadius="4" transform="matrix(1,0,0,1,126,84)" pers-center="0,0" pers-size="0,0" pers-start="0,0" pers-end="0,0" locked="0" mesh="" flag=""/>
            <path id="shapePath8" d="M-435,-312.5 L687,-312.5 L687,480.5 L-435,480.5 L-435,-312.5 Z" style="stroke:none;fill:none;"/>
        </g>
        <g id="Shape9">
            <desc shapeID="9" type="0" basicInfo-basicType="0" basicInfo-roundedRectRadius="12" basicInfo-polygonSides="6" basicInfo-starPoints="5" bounding="rect(-561.26,-396.85,1122.52,793.701)" text="" font-familyName="" font-pixelSize="20" font-bold="0" font-underline="0" font-alignment="1" strokeStyle="0" markerStart="0" markerEnd="0" shadowEnabled="0" shadowOffsetX="0" shadowOffsetY="2" shadowBlur="4" shadowOpacity="160" blurEnabled="0" blurRadius="4" transform="matrix(1,0,0,1,126.26,84.3504)" pers-center="0,0" pers-size="0,0" pers-start="0,0" pers-end="0,0" locked="0" mesh="" flag=""/>
            <path id="shapePath9" d="M-435,-312.5 L687.52,-312.5 L687.52,481.201 L-435,481.201 L-435,-312.5 Z" style="stroke:none;fill:none;"/>
        </g>
        <g id="Shape10">
            <desc shapeID="10" type="0" basicInfo-basicType="0" basicInfo-roundedRectRadius="12" basicInfo-polygonSides="6" basicInfo-starPoints="5" bounding="rect(-120,-78,240,156)" text="" font-familyName="" font-pixelSize="20" font-bold="0" font-underline="0" font-alignment="1" strokeStyle="0" markerStart="0" markerEnd="0" shadowEnabled="0" shadowOffsetX="0" shadowOffsetY="2" shadowBlur="4" shadowOpacity="160" blurEnabled="0" blurRadius="4" transform="matrix(1,0,0,1,126.26,84.3504)" pers-center="0,0" pers-size="0,0" pers-start="0,0" pers-end="0,0" locked="0" mesh="" flag=""/>
            <path id="shapePath10" d="M6.25986,63.4493 L38.4154,27.2515 L94.1043,6.3504 L158.415,6.3504 L214.104,27.2515 L246.26,63.4493 L246.26,105.251 L214.104,141.449 L158.415,162.35 L94.1043,162.35 L38.4154,141.449 L6.25986,105.251 L6.25986,63.4493 Z" style="stroke:none;fill-rule:nonzero;fill:#004f00;fill-opacity:0.698039;"/>
        </g>
        <g id="Shape11">
            <desc shapeID="11" type="0" basicInfo-basicType="0" basicInfo-roundedRectRadius="12" basicInfo-polygonSides="6" basicInfo-starPoints="5" bounding="rect(-120,-78,240,156)" text="" font-familyName="" font-pixelSize="20" font-bold="0" font-underline="0" font-alignment="1" strokeStyle="0" markerStart="0" markerEnd="0" shadowEnabled="0" shadowOffsetX="0" shadowOffsetY="2" shadowBlur="4" shadowOpacity="160" blurEnabled="0" blurRadius="4" transform="matrix(1,0,0,1,126.26,84.3504)" pers-center="0,0" pers-size="0,0" pers-start="0,0" pers-end="0,0" locked="0" mesh="" flag=""/>
            <path id="shapePath11" d="M6.25986,63.4493 L38.4154,27.2515 L94.1043,6.3504 L158.415,6.3504 L214.104,27.2515 L246.26,63.4493 L246.26,105.251 L214.104,141.449 L158.415,162.35 L94.1043,162.35 L38.4154,141.449 L6.25986,105.251 L6.25986,63.4493 Z" style="stroke:#000000;stroke-opacity:1;stroke-width:3;stroke-linejoin:round;stroke-miterlimit:2;stroke-linecap:butt;fill:none;"/>
        </g>
        <g id="Shape12">
            <desc shapeID="12" type="0" basicInfo-basicType="0" basicInfo-roundedRectRadius="12" basicInfo-polygonSides="6" basicInfo-starPoints="5" bounding="rect(-57.8943,-10.0234,115.789,20.0469)" text="" font-familyName="" font-pixelSize="20" font-bold="0" font-underline="0" font-alignment="1" strokeStyle="0" markerStart="0" markerEnd="0" shadowEnabled="0" shadowOffsetX="0" shadowOffsetY="2" shadowBlur="4" shadowOpacity="160" blurEnabled="0" blurRadius="4" transform="matrix(1,0,0,1,105.685,49.7787)" pers-center="0,0" pers-size="0,0" pers-start="0,0" pers-end="0,0" locked="0" mesh="" flag=""/>
            <path id="shapePath12" d="M47.7904,59.4115 L47.7904,58.8802 L48.431,58.8802 C48.9935,58.8802 49.4206,58.7969 49.7123,58.6302 C50.0143,58.4532 50.2331,58.2136 50.3685,57.9115 C50.4623,57.7136 50.5092,57.1198 50.5092,56.1302 L50.5092,43.4896 C50.5092,42.5105 50.4571,41.9011 50.3529,41.6615 C50.2487,41.4115 50.0352,41.198 49.7123,41.0209 C49.3998,40.8334 48.9727,40.7396 48.431,40.7396 L47.7904,40.7396 L47.7904,40.2084 L56.3998,40.2084 C58.6914,40.2084 60.5352,40.5209 61.931,41.1459 C63.6393,41.9063 64.931,43.0625 65.806,44.6146 C66.6914,46.1667 67.1342,47.9167 67.1342,49.8646 C67.1342,51.2188 66.9154,52.4636 66.4779,53.599 C66.0508,54.7344 65.4935,55.6719 64.806,56.4115 C64.1185,57.1511 63.3217,57.75 62.4154,58.2084 C61.5196,58.6563 60.4206,59 59.1185,59.2396 C58.5352,59.3542 57.6289,59.4115 56.3998,59.4115 L47.7904,59.4115 M55.1185,41.3021 L55.1185,56.2865 C55.1185,57.0782 55.155,57.5625 55.2279,57.7396 C55.3112,57.9167 55.4414,58.0521 55.6185,58.1459 C55.8685,58.2917 56.2331,58.3646 56.7123,58.3646 C58.2956,58.3646 59.5039,57.8282 60.3373,56.7552 C61.4623,55.2969 62.0248,53.0365 62.0248,49.974 C62.0248,47.5157 61.6393,45.5521 60.8685,44.0834 C60.2539,42.9271 59.4675,42.1407 58.5092,41.724 C57.8217,41.4323 56.6914,41.2917 55.1185,41.3021 M80.7827,52.3177 L73.5171,52.3177 C73.6109,54.0782 74.0796,55.4636 74.9234,56.474 C75.5796,57.2657 76.3661,57.6615 77.2827,57.6615 C77.8452,57.6615 78.3557,57.5052 78.814,57.1927 C79.2827,56.8698 79.7775,56.2969 80.2983,55.474 L80.7827,55.7865 C80.064,57.2448 79.2723,58.2813 78.4077,58.8959 C77.5432,59.5 76.5379,59.8021 75.3921,59.8021 C73.4338,59.8021 71.9494,59.0469 70.939,57.5365 C70.1265,56.3177 69.7202,54.8073 69.7202,53.0052 C69.7202,50.7969 70.314,49.0417 71.5015,47.7396 C72.6994,46.4271 74.1005,45.7709 75.7046,45.7709 C77.0483,45.7709 78.2098,46.323 79.189,47.4271 C80.1785,48.5209 80.7098,50.1511 80.7827,52.3177 M77.2983,51.3646 C77.2983,49.8438 77.215,48.8021 77.0483,48.2396 C76.8921,47.6771 76.6369,47.2448 76.2827,46.9427 C76.0848,46.7761 75.8192,46.6927 75.4859,46.6927 C74.9963,46.6927 74.5952,46.9323 74.2827,47.4115 C73.7307,48.2552 73.4546,49.4115 73.4546,50.8802 L73.4546,51.3646 L77.2983,51.3646 M88.0031,46.1771 L88.0031,47.8802 C88.6802,47.1511 89.3312,46.6198 89.9562,46.2865 C90.5812,45.9427 91.2479,45.7709 91.9562,45.7709 C92.8208,45.7709 93.5344,46.0105 94.0969,46.4896 C94.6698,46.9688 95.05,47.5625 95.2375,48.2709 C95.3833,48.8021 95.4562,49.8334 95.4562,51.3646 L95.4562,56.5209 C95.4562,57.5417 95.55,58.1771 95.7375,58.4271 C95.925,58.6771 96.3104,58.8334 96.8937,58.8959 L96.8937,59.4115 L90.1906,59.4115 L90.1906,58.8959 C90.6906,58.8334 91.05,58.625 91.2687,58.2709 C91.425,58.0417 91.5031,57.4584 91.5031,56.5209 L91.5031,50.6302 C91.5031,49.5469 91.4562,48.8646 91.3625,48.5834 C91.2792,48.3021 91.1333,48.0834 90.925,47.9271 C90.7271,47.7709 90.5083,47.6927 90.2687,47.6927 C89.4562,47.6927 88.701,48.2709 88.0031,49.4271 L88.0031,56.5209 C88.0031,57.5105 88.0917,58.1407 88.2687,58.4115 C88.4562,58.6719 88.8,58.8334 89.3,58.8959 L89.3,59.4115 L82.5969,59.4115 L82.5969,58.8959 C83.1594,58.8438 83.5604,58.6667 83.8,58.3646 C83.9562,58.1563 84.0344,57.5417 84.0344,56.5209 L84.0344,49.0521 C84.0344,49.0521 83.9406,47.4271 83.7531,47.1771 C83.576,46.9271 83.1906,46.7657 82.5969,46.6927 L82.5969,46.1771 L88.0031,46.1771 M102.08,39.7552 C102.694,39.7552 103.215,39.974 103.642,40.4115 C104.069,40.8386 104.283,41.3542 104.283,41.9584 C104.283,42.5625 104.064,43.0782 103.627,43.5052 C103.199,43.9219 102.684,44.1302 102.08,44.1302 C101.475,44.1302 100.96,43.9219 100.533,43.5052 C100.116,43.0782 99.9078,42.5625 99.9078,41.9584 C99.9078,41.3542 100.116,40.8386 100.533,40.4115 C100.96,39.974 101.475,39.7552 102.08,39.7552 M104.064,46.1771 L104.064,56.6615 C104.064,57.599 104.173,58.198 104.392,58.4584 C104.611,58.7188 105.038,58.8646 105.673,58.8959 L105.673,59.4115 L98.5172,59.4115 L98.5172,58.8959 C99.1005,58.8855 99.5328,58.7188 99.814,58.3959 C100.012,58.1771 100.111,57.599 100.111,56.6615 L100.111,48.9271 C100.111,48 100.002,47.4063 99.7828,47.1459 C99.564,46.8855 99.1422,46.7344 98.5172,46.6927 L98.5172,46.1771 L104.064,46.1771 M115.415,45.8021 L115.634,50.3177 L115.15,50.3177 C114.577,48.974 113.978,48.0573 113.353,47.5677 C112.738,47.0782 112.124,46.8334 111.509,46.8334 C111.124,46.8334 110.79,46.9636 110.509,47.224 C110.238,47.4844 110.103,47.7865 110.103,48.1302 C110.103,48.3802 110.197,48.625 110.384,48.8646 C110.686,49.25 111.53,49.9115 112.915,50.849 C114.311,51.7865 115.228,52.5834 115.665,53.2396 C116.103,53.8959 116.322,54.6302 116.322,55.4427 C116.322,56.1823 116.134,56.9063 115.759,57.6146 C115.395,58.323 114.879,58.8646 114.212,59.2396 C113.546,59.6146 112.806,59.8021 111.994,59.8021 C111.358,59.8021 110.514,59.6042 109.462,59.2084 C109.171,59.1042 108.973,59.0521 108.869,59.0521 C108.566,59.0521 108.311,59.2917 108.103,59.7709 L107.634,59.7709 L107.4,55.0052 L107.884,55.0052 C108.311,56.2552 108.895,57.1927 109.634,57.8177 C110.374,58.4323 111.077,58.7396 111.744,58.7396 C112.191,58.7396 112.556,58.6042 112.837,58.3334 C113.129,58.0521 113.275,57.7136 113.275,57.3177 C113.275,56.8594 113.134,56.4688 112.853,56.1459 C112.572,55.8125 111.941,55.3125 110.962,54.6459 C109.514,53.6459 108.577,52.8802 108.15,52.349 C107.525,51.5677 107.212,50.7136 107.212,49.7865 C107.212,48.7657 107.561,47.8438 108.259,47.0209 C108.967,46.1875 109.988,45.7709 111.322,45.7709 C112.04,45.7709 112.733,45.948 113.4,46.3021 C113.66,46.4375 113.869,46.5052 114.025,46.5052 C114.202,46.5052 114.342,46.474 114.447,46.4115 C114.551,46.3386 114.712,46.1355 114.931,45.8021 L115.415,45.8021 M126.829,45.8021 L127.048,50.3177 L126.563,50.3177 C125.99,48.974 125.391,48.0573 124.766,47.5677 C124.152,47.0782 123.537,46.8334 122.923,46.8334 C122.537,46.8334 122.204,46.9636 121.923,47.224 C121.652,47.4844 121.516,47.7865 121.516,48.1302 C121.516,48.3802 121.61,48.625 121.798,48.8646 C122.1,49.25 122.943,49.9115 124.329,50.849 C125.725,51.7865 126.641,52.5834 127.079,53.2396 C127.516,53.8959 127.735,54.6302 127.735,55.4427 C127.735,56.1823 127.548,56.9063 127.173,57.6146 C126.808,58.323 126.292,58.8646 125.626,59.2396 C124.959,59.6146 124.219,59.8021 123.407,59.8021 C122.771,59.8021 121.928,59.6042 120.876,59.2084 C120.584,59.1042 120.386,59.0521 120.282,59.0521 C119.98,59.0521 119.725,59.2917 119.516,59.7709 L119.048,59.7709 L118.813,55.0052 L119.298,55.0052 C119.725,56.2552 120.308,57.1927 121.048,57.8177 C121.787,58.4323 122.49,58.7396 123.157,58.7396 C123.605,58.7396 123.969,58.6042 124.251,58.3334 C124.542,58.0521 124.688,57.7136 124.688,57.3177 C124.688,56.8594 124.548,56.4688 124.266,56.1459 C123.985,55.8125 123.355,55.3125 122.376,54.6459 C120.928,53.6459 119.99,52.8802 119.563,52.349 C118.938,51.5677 118.626,50.7136 118.626,49.7865 C118.626,48.7657 118.975,47.8438 119.673,47.0209 C120.381,46.1875 121.402,45.7709 122.735,45.7709 C123.454,45.7709 124.146,45.948 124.813,46.3021 C125.074,46.4375 125.282,46.5052 125.438,46.5052 C125.615,46.5052 125.756,46.474 125.86,46.4115 C125.964,46.3386 126.126,46.1355 126.344,45.8021 L126.829,45.8021 M137.18,57.4584 C135.565,58.8855 134.117,59.599 132.836,59.599 C132.075,59.599 131.445,59.3542 130.945,58.8646 C130.445,58.3646 130.195,57.7396 130.195,56.9896 C130.195,55.9792 130.628,55.073 131.492,54.2709 C132.367,53.4584 134.263,52.3802 137.18,51.0365 L137.18,49.7084 C137.18,49.7084 137.122,48.0782 137.008,47.8177 C136.904,47.5573 136.7,47.3334 136.398,47.1459 C136.096,46.948 135.758,46.849 135.383,46.849 C134.768,46.849 134.263,46.9844 133.867,47.2552 C133.628,47.4323 133.508,47.6302 133.508,47.849 C133.508,48.0573 133.638,48.3073 133.898,48.599 C134.253,49.0052 134.43,49.3959 134.43,49.7709 C134.43,50.2292 134.258,50.625 133.914,50.9584 C133.57,51.2813 133.122,51.4427 132.57,51.4427 C131.977,51.4427 131.477,51.2657 131.07,50.9115 C130.674,50.5469 130.477,50.125 130.477,49.6459 C130.477,48.9584 130.742,48.3073 131.273,47.6927 C131.815,47.0782 132.565,46.6042 133.523,46.2709 C134.492,45.9375 135.492,45.7709 136.523,45.7709 C137.784,45.7709 138.779,46.0417 139.508,46.5834 C140.237,47.1146 140.711,47.6875 140.93,48.3021 C141.065,48.7084 141.133,49.6198 141.133,51.0365 L141.133,56.1771 C141.133,56.7813 141.154,57.1615 141.195,57.3177 C141.247,57.474 141.32,57.5938 141.414,57.6771 C141.508,57.75 141.617,57.7865 141.742,57.7865 C141.992,57.7865 142.242,57.6094 142.492,57.2552 L142.914,57.599 C142.445,58.2969 141.956,58.8073 141.445,59.1302 C140.945,59.4427 140.372,59.599 139.727,59.599 C138.977,59.599 138.388,59.4219 137.961,59.0677 C137.534,58.7136 137.273,58.1771 137.18,57.4584 M137.18,56.4271 L137.18,51.9896 C136.044,52.6563 135.195,53.375 134.633,54.1459 C134.268,54.6563 134.086,55.1719 134.086,55.6927 C134.086,56.1198 134.242,56.5 134.555,56.8334 C134.784,57.0938 135.112,57.224 135.539,57.224 C136.008,57.224 136.555,56.9584 137.18,56.4271 M146.219,49.2084 L146.219,48.5834 C147.323,48.1042 148.12,47.4896 148.609,46.7396 C149.109,45.9896 149.359,45.2188 149.359,44.4271 C149.359,44.2813 149.323,44.1667 149.25,44.0834 C149.187,44 149.125,43.9584 149.062,43.9584 C149,43.9584 148.911,43.9948 148.797,44.0677 C148.526,44.224 148.187,44.3021 147.781,44.3021 C147.229,44.3021 146.745,44.0886 146.328,43.6615 C145.922,43.224 145.719,42.7084 145.719,42.1146 C145.719,41.5 145.953,40.9584 146.422,40.4896 C146.891,40.0105 147.464,39.7709 148.141,39.7709 C148.953,39.7709 149.646,40.0886 150.219,40.724 C150.792,41.349 151.078,42.2084 151.078,43.3021 C151.078,44.6459 150.667,45.8438 149.844,46.8959 C149.031,47.9375 147.823,48.7084 146.219,49.2084 M162.673,45.8021 L162.891,50.3177 L162.407,50.3177 C161.834,48.974 161.235,48.0573 160.61,47.5677 C159.996,47.0782 159.381,46.8334 158.766,46.8334 C158.381,46.8334 158.048,46.9636 157.766,47.224 C157.496,47.4844 157.36,47.7865 157.36,48.1302 C157.36,48.3802 157.454,48.625 157.641,48.8646 C157.943,49.25 158.787,49.9115 160.173,50.849 C161.568,51.7865 162.485,52.5834 162.923,53.2396 C163.36,53.8959 163.579,54.6302 163.579,55.4427 C163.579,56.1823 163.391,56.9063 163.016,57.6146 C162.652,58.323 162.136,58.8646 161.47,59.2396 C160.803,59.6146 160.063,59.8021 159.251,59.8021 C158.615,59.8021 157.772,59.6042 156.72,59.2084 C156.428,59.1042 156.23,59.0521 156.126,59.0521 C155.824,59.0521 155.568,59.2917 155.36,59.7709 L154.891,59.7709 L154.657,55.0052 L155.141,55.0052 C155.568,56.2552 156.152,57.1927 156.891,57.8177 C157.631,58.4323 158.334,58.7396 159.001,58.7396 C159.449,58.7396 159.813,58.6042 160.095,58.3334 C160.386,58.0521 160.532,57.7136 160.532,57.3177 C160.532,56.8594 160.391,56.4688 160.11,56.1459 C159.829,55.8125 159.199,55.3125 158.22,54.6459 C156.772,53.6459 155.834,52.8802 155.407,52.349 C154.782,51.5677 154.47,50.7136 154.47,49.7865 C154.47,48.7657 154.818,47.8438 155.516,47.0209 C156.225,46.1875 157.246,45.7709 158.579,45.7709 C159.298,45.7709 159.99,45.948 160.657,46.3021 C160.917,46.4375 161.126,46.5052 161.282,46.5052 C161.459,46.5052 161.6,46.474 161.704,46.4115 C161.808,46.3386 161.97,46.1355 162.188,45.8021 L162.673,45.8021 Z" style="stroke:none;fill-rule:nonzero;fill:#ff0000;fill-opacity:1;"/>
        </g>
        <g id="Shape13">
            <desc shapeID="13" type="0" basicInfo-basicType="0" basicInfo-roundedRectRadius="12" basicInfo-polygonSides="6" basicInfo-starPoints="5" bounding="rect(-32.5988,-9.79688,65.1975,19.5938)" text="" font-familyName="" font-pixelSize="20" font-bold="0" font-underline="0" font-alignment="1" strokeStyle="0" markerStart="0" markerEnd="0" shadowEnabled="0" shadowOffsetX="0" shadowOffsetY="2" shadowBlur="4" shadowOpacity="160" blurEnabled="0" blurRadius="4" transform="matrix(1,0,0,1,126.212,85.0052)" pers-center="0,0" pers-size="0,0" pers-start="0,0" pers-end="0,0" locked="0" mesh="" flag=""/>
            <path id="shapePath13" d="M100.707,85.724 L100.707,91.0365 C100.707,92.0782 100.77,92.7344 100.895,93.0052 C101.03,93.2761 101.259,93.4896 101.582,93.6459 C101.905,93.8021 102.504,93.8802 103.379,93.8802 L103.379,94.4115 L93.6134,94.4115 L93.6134,93.8802 C94.4988,93.8802 95.0978,93.8021 95.4103,93.6459 C95.7332,93.4792 95.9572,93.2657 96.0822,93.0052 C96.2176,92.7344 96.2853,92.0782 96.2853,91.0365 L96.2853,78.5834 C96.2853,77.5417 96.2176,76.8855 96.0822,76.6146 C95.9572,76.3438 95.7332,76.1302 95.4103,75.974 C95.0873,75.8177 94.4884,75.7396 93.6134,75.7396 L93.6134,75.2084 L101.988,75.2084 C104.738,75.2084 106.712,75.7032 107.91,76.6927 C109.119,77.6719 109.723,78.8959 109.723,80.3646 C109.723,81.6146 109.332,82.6823 108.551,83.5677 C107.78,84.4532 106.712,85.0573 105.348,85.3802 C104.442,85.6094 102.895,85.724 100.707,85.724 M100.707,76.3177 L100.707,84.6146 C101.02,84.6355 101.254,84.6459 101.41,84.6459 C102.567,84.6459 103.457,84.3021 104.082,83.6146 C104.707,82.9271 105.02,81.8698 105.02,80.4427 C105.02,79.0157 104.707,77.974 104.082,77.3177 C103.457,76.6511 102.525,76.3177 101.285,76.3177 L100.707,76.3177 M116.95,75.2084 L116.95,91.6615 C116.95,92.599 117.059,93.198 117.278,93.4584 C117.497,93.7188 117.924,93.8646 118.559,93.8959 L118.559,94.4115 L111.403,94.4115 L111.403,93.8959 C111.987,93.8855 112.419,93.7188 112.7,93.3959 C112.888,93.1771 112.981,92.599 112.981,91.6615 L112.981,77.9584 C112.981,77.0313 112.872,76.4375 112.653,76.1771 C112.445,75.9167 112.028,75.7709 111.403,75.7396 L111.403,75.2084 L116.95,75.2084 M127.223,92.4584 C125.609,93.8855 124.161,94.599 122.88,94.599 C122.119,94.599 121.489,94.3542 120.989,93.8646 C120.489,93.3646 120.239,92.7396 120.239,91.9896 C120.239,90.9792 120.671,90.073 121.536,89.2709 C122.411,88.4584 124.307,87.3802 127.223,86.0365 L127.223,84.7084 C127.223,84.7084 127.166,83.0782 127.052,82.8177 C126.947,82.5573 126.744,82.3334 126.442,82.1459 C126.14,81.948 125.802,81.849 125.427,81.849 C124.812,81.849 124.307,81.9844 123.911,82.2552 C123.671,82.4323 123.552,82.6302 123.552,82.849 C123.552,83.0573 123.682,83.3073 123.942,83.599 C124.296,84.0052 124.473,84.3959 124.473,84.7709 C124.473,85.2292 124.302,85.625 123.958,85.9584 C123.614,86.2813 123.166,86.4427 122.614,86.4427 C122.02,86.4427 121.52,86.2657 121.114,85.9115 C120.718,85.5469 120.52,85.125 120.52,84.6459 C120.52,83.9584 120.786,83.3073 121.317,82.6927 C121.859,82.0782 122.609,81.6042 123.567,81.2709 C124.536,80.9375 125.536,80.7709 126.567,80.7709 C127.828,80.7709 128.822,81.0417 129.552,81.5834 C130.281,82.1146 130.755,82.6875 130.973,83.3021 C131.109,83.7084 131.177,84.6198 131.177,86.0365 L131.177,91.1771 C131.177,91.7813 131.197,92.1615 131.239,92.3177 C131.291,92.474 131.364,92.5938 131.458,92.6771 C131.552,92.75 131.661,92.7865 131.786,92.7865 C132.036,92.7865 132.286,92.6094 132.536,92.2552 L132.958,92.599 C132.489,93.2969 131.999,93.8073 131.489,94.1302 C130.989,94.4427 130.416,94.599 129.77,94.599 C129.02,94.599 128.432,94.4219 128.005,94.0677 C127.578,93.7136 127.317,93.1771 127.223,92.4584 M127.223,91.4271 L127.223,86.9896 C126.088,87.6563 125.239,88.375 124.677,89.1459 C124.312,89.6563 124.13,90.1719 124.13,90.6927 C124.13,91.1198 124.286,91.5 124.598,91.8334 C124.828,92.0938 125.156,92.224 125.583,92.224 C126.052,92.224 126.598,91.9584 127.223,91.4271 M145.387,91.0052 L145.825,91.3334 C145.2,92.5105 144.424,93.3855 143.497,93.9584 C142.57,94.5209 141.58,94.8021 140.528,94.8021 C138.768,94.8021 137.356,94.1407 136.294,92.8177 C135.242,91.4844 134.716,89.8802 134.716,88.0052 C134.716,86.2032 135.195,84.6198 136.153,83.2552 C137.32,81.599 138.919,80.7709 140.95,80.7709 C142.325,80.7709 143.414,81.1198 144.216,81.8177 C145.028,82.5052 145.434,83.2709 145.434,84.1146 C145.434,84.6563 145.268,85.0886 144.934,85.4115 C144.611,85.724 144.184,85.8802 143.653,85.8802 C143.101,85.8802 142.643,85.698 142.278,85.3334 C141.914,84.9688 141.69,84.3125 141.606,83.3646 C141.554,82.7709 141.419,82.3542 141.2,82.1146 C140.981,81.8855 140.726,81.7709 140.434,81.7709 C139.976,81.7709 139.591,82.0105 139.278,82.4896 C138.778,83.2188 138.528,84.3334 138.528,85.8334 C138.528,87.073 138.726,88.2657 139.122,89.4115 C139.528,90.5469 140.075,91.3907 140.762,91.9427 C141.283,92.349 141.893,92.5521 142.591,92.5521 C143.059,92.5521 143.502,92.448 143.919,92.2396 C144.335,92.0209 144.825,91.6094 145.387,91.0052 M158.811,87.3177 L151.545,87.3177 C151.639,89.0782 152.108,90.4636 152.952,91.474 C153.608,92.2657 154.394,92.6615 155.311,92.6615 C155.873,92.6615 156.384,92.5052 156.842,92.1927 C157.311,91.8698 157.806,91.2969 158.327,90.474 L158.811,90.7865 C158.092,92.2448 157.3,93.2813 156.436,93.8959 C155.571,94.5 154.566,94.8021 153.42,94.8021 C151.462,94.8021 149.978,94.0469 148.967,92.5365 C148.155,91.3177 147.748,89.8073 147.748,88.0052 C147.748,85.7969 148.342,84.0417 149.53,82.7396 C150.728,81.4271 152.129,80.7709 153.733,80.7709 C155.077,80.7709 156.238,81.323 157.217,82.4271 C158.207,83.5209 158.738,85.1511 158.811,87.3177 M155.327,86.3646 C155.327,84.8438 155.243,83.8021 155.077,83.2396 C154.92,82.6771 154.665,82.2448 154.311,81.9427 C154.113,81.7761 153.847,81.6927 153.514,81.6927 C153.024,81.6927 152.623,81.9323 152.311,82.4115 C151.759,83.2552 151.483,84.4115 151.483,85.8802 L151.483,86.3646 L155.327,86.3646 Z" style="stroke:none;fill-rule:nonzero;fill:#000000;fill-opacity:1;"/>
        </g>
        <g id="Shape14">
            <desc shapeID="14" type="0" basicInfo-basicType="0" basicInfo-roundedRectRadius="12" basicInfo-polygonSides="6" basicInfo-starPoints="5" bounding="rect(-49.7808,-10.0234,99.5616,20.0469)" text="" font-familyName="" font-pixelSize="20" font-bold="0" font-underline="0" font-alignment="1" strokeStyle="0" markerStart="0" markerEnd="0" shadowEnabled="0" shadowOffsetX="0" shadowOffsetY="2" shadowBlur="4" shadowOpacity="160" blurEnabled="0" blurRadius="4" transform="matrix(1,0,0,1,154.675,119.779)" pers-center="0,0" pers-size="0,0" pers-start="0,0" pers-end="0,0" locked="0" mesh="" flag=""/>
            <path id="shapePath14" d="M111.988,120.724 L111.988,126.036 C111.988,127.078 112.051,127.734 112.176,128.005 C112.311,128.276 112.54,128.49 112.863,128.646 C113.186,128.802 113.785,128.88 114.66,128.88 L114.66,129.411 L104.894,129.411 L104.894,128.88 C105.78,128.88 106.379,128.802 106.691,128.646 C107.014,128.479 107.238,128.266 107.363,128.005 C107.498,127.734 107.566,127.078 107.566,126.036 L107.566,113.583 C107.566,112.542 107.498,111.885 107.363,111.615 C107.238,111.344 107.014,111.13 106.691,110.974 C106.368,110.818 105.769,110.74 104.894,110.74 L104.894,110.208 L113.269,110.208 C116.019,110.208 117.993,110.703 119.191,111.693 C120.399,112.672 121.004,113.896 121.004,115.365 C121.004,116.615 120.613,117.682 119.832,118.568 C119.061,119.453 117.993,120.057 116.629,120.38 C115.722,120.609 114.176,120.724 111.988,120.724 M111.988,111.318 L111.988,119.615 C112.301,119.635 112.535,119.646 112.691,119.646 C113.847,119.646 114.738,119.302 115.363,118.615 C115.988,117.927 116.301,116.87 116.301,115.443 C116.301,114.016 115.988,112.974 115.363,112.318 C114.738,111.651 113.806,111.318 112.566,111.318 L111.988,111.318 M126.231,109.755 C126.846,109.755 127.366,109.974 127.793,110.411 C128.221,110.839 128.434,111.354 128.434,111.958 C128.434,112.563 128.215,113.078 127.778,113.505 C127.351,113.922 126.835,114.13 126.231,114.13 C125.627,114.13 125.111,113.922 124.684,113.505 C124.267,113.078 124.059,112.563 124.059,111.958 C124.059,111.354 124.267,110.839 124.684,110.411 C125.111,109.974 125.627,109.755 126.231,109.755 M128.215,116.177 L128.215,126.661 C128.215,127.599 128.325,128.198 128.543,128.458 C128.762,128.719 129.189,128.865 129.825,128.896 L129.825,129.411 L122.668,129.411 L122.668,128.896 C123.252,128.885 123.684,128.719 123.965,128.396 C124.163,128.177 124.262,127.599 124.262,126.661 L124.262,118.927 C124.262,118 124.153,117.406 123.934,117.146 C123.715,116.885 123.293,116.734 122.668,116.693 L122.668,116.177 L128.215,116.177 M142.051,129.411 L130.52,129.411 L130.52,129.099 L137.801,117.036 L135.676,117.036 C134.759,117.036 134.103,117.12 133.707,117.286 C133.312,117.453 132.989,117.719 132.739,118.083 C132.499,118.438 132.244,119.083 131.973,120.021 L131.489,120.021 L131.489,116.177 L142.629,116.177 L142.629,116.552 L135.411,128.505 L136.317,128.505 C138.129,128.505 139.437,128.245 140.239,127.724 C141.041,127.203 141.645,126.255 142.051,124.88 L142.442,124.88 L142.051,129.411 M155.068,129.411 L143.537,129.411 L143.537,129.099 L150.818,117.036 L148.693,117.036 C147.777,117.036 147.12,117.12 146.725,117.286 C146.329,117.453 146.006,117.719 145.756,118.083 C145.516,118.438 145.261,119.083 144.99,120.021 L144.506,120.021 L144.506,116.177 L155.646,116.177 L155.646,116.552 L148.428,128.505 L149.334,128.505 C151.146,128.505 152.454,128.245 153.256,127.724 C154.058,127.203 154.662,126.255 155.068,124.88 L155.459,124.88 L155.068,129.411 M168.445,122.318 L161.179,122.318 C161.273,124.078 161.742,125.464 162.586,126.474 C163.242,127.266 164.028,127.661 164.945,127.661 C165.507,127.661 166.018,127.505 166.476,127.193 C166.945,126.87 167.44,126.297 167.961,125.474 L168.445,125.786 C167.726,127.245 166.935,128.281 166.07,128.896 C165.205,129.5 164.2,129.802 163.054,129.802 C161.096,129.802 159.612,129.047 158.601,127.536 C157.789,126.318 157.382,124.807 157.382,123.005 C157.382,120.797 157.976,119.042 159.164,117.74 C160.362,116.427 161.763,115.771 163.367,115.771 C164.711,115.771 165.872,116.323 166.851,117.427 C167.841,118.521 168.372,120.151 168.445,122.318 M164.961,121.365 C164.961,119.844 164.877,118.802 164.711,118.24 C164.554,117.677 164.299,117.245 163.945,116.943 C163.747,116.776 163.481,116.693 163.148,116.693 C162.659,116.693 162.257,116.932 161.945,117.411 C161.393,118.255 161.117,119.411 161.117,120.88 L161.117,121.365 L164.961,121.365 M175.743,116.177 L175.743,119.177 C176.618,117.802 177.384,116.891 178.04,116.443 C178.707,115.995 179.348,115.771 179.962,115.771 C180.493,115.771 180.915,115.938 181.228,116.271 C181.551,116.594 181.712,117.052 181.712,117.646 C181.712,118.281 181.556,118.776 181.243,119.13 C180.941,119.474 180.572,119.646 180.134,119.646 C179.634,119.646 179.197,119.484 178.822,119.161 C178.457,118.839 178.243,118.656 178.181,118.615 C178.087,118.563 177.978,118.536 177.853,118.536 C177.582,118.536 177.322,118.641 177.072,118.849 C176.686,119.172 176.395,119.63 176.197,120.224 C175.895,121.141 175.743,122.151 175.743,123.255 L175.743,126.302 L175.759,127.083 C175.759,127.625 175.79,127.974 175.853,128.13 C175.967,128.38 176.134,128.568 176.353,128.693 C176.582,128.807 176.962,128.875 177.493,128.896 L177.493,129.411 L170.337,129.411 L170.337,128.896 C170.91,128.854 171.296,128.698 171.493,128.427 C171.702,128.156 171.806,127.448 171.806,126.302 L171.806,118.974 C171.806,118.224 171.77,117.745 171.697,117.536 C171.603,117.266 171.462,117.073 171.275,116.958 C171.098,116.833 170.785,116.745 170.337,116.693 L170.337,116.177 L175.743,116.177 M186.448,109.755 C187.063,109.755 187.584,109.974 188.011,110.411 C188.438,110.839 188.651,111.354 188.651,111.958 C188.651,112.563 188.433,113.078 187.995,113.505 C187.568,113.922 187.052,114.13 186.448,114.13 C185.844,114.13 185.328,113.922 184.901,113.505 C184.485,113.078 184.276,112.563 184.276,111.958 C184.276,111.354 184.485,110.839 184.901,110.411 C185.328,109.974 185.844,109.755 186.448,109.755 M188.433,116.177 L188.433,126.661 C188.433,127.599 188.542,128.198 188.761,128.458 C188.979,128.719 189.406,128.865 190.042,128.896 L190.042,129.411 L182.886,129.411 L182.886,128.896 C183.469,128.885 183.901,128.719 184.183,128.396 C184.38,128.177 184.479,127.599 184.479,126.661 L184.479,118.927 C184.479,118 184.37,117.406 184.151,117.146 C183.933,116.885 183.511,116.734 182.886,116.693 L182.886,116.177 L188.433,116.177 M198.721,127.458 C197.107,128.885 195.659,129.599 194.378,129.599 C193.617,129.599 192.987,129.354 192.487,128.865 C191.987,128.365 191.737,127.74 191.737,126.99 C191.737,125.979 192.169,125.073 193.034,124.271 C193.909,123.458 195.805,122.38 198.721,121.036 L198.721,119.708 C198.721,119.708 198.664,118.078 198.55,117.818 C198.445,117.557 198.242,117.333 197.94,117.146 C197.638,116.948 197.3,116.849 196.925,116.849 C196.31,116.849 195.805,116.984 195.409,117.255 C195.169,117.432 195.05,117.63 195.05,117.849 C195.05,118.057 195.18,118.307 195.44,118.599 C195.794,119.005 195.971,119.396 195.971,119.771 C195.971,120.229 195.8,120.625 195.456,120.958 C195.112,121.281 194.664,121.443 194.112,121.443 C193.518,121.443 193.018,121.266 192.612,120.911 C192.216,120.547 192.018,120.125 192.018,119.646 C192.018,118.958 192.284,118.307 192.815,117.693 C193.357,117.078 194.107,116.604 195.065,116.271 C196.034,115.938 197.034,115.771 198.065,115.771 C199.326,115.771 200.32,116.042 201.05,116.583 C201.779,117.115 202.253,117.688 202.471,118.302 C202.607,118.708 202.675,119.62 202.675,121.036 L202.675,126.177 C202.675,126.781 202.695,127.161 202.737,127.318 C202.789,127.474 202.862,127.594 202.956,127.677 C203.05,127.75 203.159,127.786 203.284,127.786 C203.534,127.786 203.784,127.609 204.034,127.255 L204.456,127.599 C203.987,128.297 203.498,128.807 202.987,129.13 C202.487,129.443 201.914,129.599 201.268,129.599 C200.518,129.599 199.93,129.422 199.503,129.068 C199.076,128.714 198.815,128.177 198.721,127.458 M198.721,126.427 L198.721,121.99 C197.586,122.656 196.737,123.375 196.175,124.146 C195.81,124.656 195.628,125.172 195.628,125.693 C195.628,126.12 195.784,126.5 196.096,126.833 C196.326,127.094 196.654,127.224 197.081,127.224 C197.55,127.224 198.096,126.958 198.721,126.427 Z" style="stroke:none;fill-rule:nonzero;fill:#ff0000;fill-opacity:1;"/>
        </g>
    </g>
</svg>
